<?xml version="1.0" standalone="no"?><!DOCTYPE svg PUBLIC "-//W3C//DTD SVG 1.1//EN" "http://www.w3.org/Graphics/SVG/1.1/DTD/svg11.dtd"><svg t="1669994124451" class="icon" viewBox="0 0 1129 1024" version="1.1" xmlns="http://www.w3.org/2000/svg" p-id="2662" xmlns:xlink="http://www.w3.org/1999/xlink" width="220.5078125" height="200"><path d="M348.43524824 882.78857422l223.07295009-296.63631186L794.57024201 882.78857422H348.43524824z m297.43786984-74.14680917L571.50819833 709.88113767l-74.36492047 98.76607984h148.72984022zM274.07032848 141.21142578h594.85392834c30.76454599 0 57.06327093 10.86737714 78.85255286 32.59667823 21.78928121 21.74565924 32.68392217 47.92987569 32.68392218 78.64534652v370.78857422c0 30.68820699-10.89464097 56.91604614-32.68392218 78.64534722-21.78928121 21.73475356-48.09345937 32.58577256-78.85255286 32.58577256h-92.93706549l-55.77096411-74.15771484h148.7080296c10.26757159 0 19.00836691-3.62064108 26.29872495-10.88373529 7.25218854-7.21947153 10.89464097-15.97662499 10.89464097-26.21693348v-370.78857422c0-10.22940209-3.6479049-18.96474494-10.89464097-26.2387441-7.29035804-7.21401906-16.03115335-10.86737714-26.29872495-10.86737715H274.07032848c-10.26757159 0-19.04108393 3.65335809-26.26600864 10.86737715-7.3067162 7.27399917-10.92735727 16.00934201-10.92735727 26.24419731v370.78312101c0 10.24030777 3.62064108 18.99746195 10.92735727 26.21693347 7.22492472 7.2630935 15.99843635 10.88918777 26.26600863 10.88918778h148.71893457l-55.78186907 74.15771484H274.07032848c-30.797263 0-57.07417661-10.85647147-78.85255287-32.59122504C173.43940008 680.16352407 162.54475911 653.93568493 162.54475911 623.24747794V252.44799805C162.54475911 221.73797971 173.43940008 195.55376324 195.21777561 173.80810401 216.99615188 152.07880292 243.27306548 141.21142578 274.06487529 141.21142578z" p-id="2663" fill="#000000"></path></svg>