<?xml version="1.0" standalone="no"?><!DOCTYPE svg PUBLIC "-//W3C//DTD SVG 1.1//EN" "http://www.w3.org/Graphics/SVG/1.1/DTD/svg11.dtd">
<svg t="1658466397382" class="icon" viewBox="0 0 1024 1024" version="1.1" xmlns="http://www.w3.org/2000/svg" p-id="5438" xmlns:xlink="http://www.w3.org/1999/xlink" width="200" height="200">
<defs><style type="text/css">@font-face { font-family: feedback-iconfont; src: url("//at.alicdn.com/t/font_1031158_u69w8yhxdu.woff2?t=1630033759944") format("woff2"), url("//at.alicdn.com/t/font_1031158_u69w8yhxdu.woff?t=1630033759944") format("woff"), url("//at.alicdn.com/t/font_1031158_u69w8yhxdu.ttf?t=1630033759944") format("truetype"); }
</style></defs><path d="M819.525818 46.545455H204.474182A158.068364 158.068364 0 0 0 46.545455 204.427636v615.051637A158.114909 158.114909 0 0 0 204.474182 977.454545h615.051636A158.068364 158.068364 0 0 0 977.454545 819.479273V204.427636A158.021818 158.021818 0 0 0 819.525818 46.545455zM405.317818 618.682182V405.317818h213.317818v213.364364H405.317818z m213.317818 69.818182V907.636364H405.317818v-219.136h213.317818zM116.363636 405.317818h219.136v213.364364H116.363636V405.317818z m288.954182-69.818182V116.363636h213.317818v219.136H405.317818z m283.136 69.818182H907.636364v213.364364h-219.182546V405.317818zM907.636364 204.427636v131.025455h-219.182546V116.363636h131.072c48.593455 0 88.110545 39.470545 88.110546 88.064zM204.474182 116.363636h130.978909v219.136H116.363636V204.427636c0-48.593455 39.563636-88.064 88.110546-88.064zM116.363636 819.479273v-130.978909h219.136V907.636364H204.474182A88.250182 88.250182 0 0 1 116.363636 819.479273zM819.525818 907.636364h-131.072v-219.136H907.636364v130.978909a88.250182 88.250182 0 0 1-88.110546 88.157091z" p-id="5439"></path></svg>